<?xml version="1.0" standalone="no"?>
<!DOCTYPE svg PUBLIC "-//W3C//DTD SVG 1.1//EN" "http://www.w3.org/Graphics/SVG/1.1/DTD/svg11.dtd">
<svg xmlns:xlink="http://www.w3.org/1999/xlink" width="42.549ex" height="31.509ex" style="vertical-align: -14.996ex; margin-bottom: -0.175ex;" viewBox="0 -7034.4 18319.8 13566.5" xmlns="http://www.w3.org/2000/svg">
<defs>
<path stroke-width="10" id="E1-MJMATHI-48" d="M228 637Q194 637 192 641Q191 643 191 649Q191 673 202 682Q204 683 219 683Q260 681 355 681Q389 681 418 681T463 682T483 682Q499 682 499 672Q499 670 497 658Q492 641 487 638H485Q483 638 480 638T473 638T464 637T455 637Q416 636 405 634T387 623Q384 619 355 500Q348 474 340 442T328 395L324 380Q324 378 469 378H614L615 381Q615 384 646 504Q674 619 674 627T617 637Q594 637 587 639T580 648Q580 650 582 660Q586 677 588 679T604 682Q609 682 646 681T740 680Q802 680 835 681T871 682Q888 682 888 672Q888 645 876 638H874Q872 638 869 638T862 638T853 637T844 637Q805 636 794 634T776 623Q773 618 704 340T634 58Q634 51 638 51Q646 48 692 46H723Q729 38 729 37T726 19Q722 6 716 0H701Q664 2 567 2Q533 2 504 2T458 2T437 1Q420 1 420 10Q420 15 423 24Q428 43 433 45Q437 46 448 46H454Q481 46 514 49Q520 50 522 50T528 55T534 64T540 82T547 110T558 153Q565 181 569 198Q602 330 602 331T457 332H312L279 197Q245 63 245 58Q245 51 253 49T303 46H334Q340 38 340 37T337 19Q333 6 327 0H312Q275 2 178 2Q144 2 115 2T69 2T48 1Q31 1 31 10Q31 12 34 24Q39 43 44 45Q48 46 59 46H65Q92 46 125 49Q139 52 144 61Q147 65 216 339T285 628Q285 635 228 637Z"></path>
<path stroke-width="10" id="E1-MJMAIN-28" d="M94 250Q94 319 104 381T127 488T164 576T202 643T244 695T277 729T302 750H315H319Q333 750 333 741Q333 738 316 720T275 667T226 581T184 443T167 250T184 58T225 -81T274 -167T316 -220T333 -241Q333 -250 318 -250H315H302L274 -226Q180 -141 137 -14T94 250Z"></path>
<path stroke-width="10" id="E1-MJMATHI-66" d="M118 -162Q120 -162 124 -164T135 -167T147 -168Q160 -168 171 -155T187 -126Q197 -99 221 27T267 267T289 382V385H242Q195 385 192 387Q188 390 188 397L195 425Q197 430 203 430T250 431Q298 431 298 432Q298 434 307 482T319 540Q356 705 465 705Q502 703 526 683T550 630Q550 594 529 578T487 561Q443 561 443 603Q443 622 454 636T478 657L487 662Q471 668 457 668Q445 668 434 658T419 630Q412 601 403 552T387 469T380 433Q380 431 435 431Q480 431 487 430T498 424Q499 420 496 407T491 391Q489 386 482 386T428 385H372L349 263Q301 15 282 -47Q255 -132 212 -173Q175 -205 139 -205Q107 -205 81 -186T55 -132Q55 -95 76 -78T118 -61Q162 -61 162 -103Q162 -122 151 -136T127 -157L118 -162Z"></path>
<path stroke-width="10" id="E1-MJMAIN-29" d="M60 749L64 750Q69 750 74 750H86L114 726Q208 641 251 514T294 250Q294 182 284 119T261 12T224 -76T186 -143T145 -194T113 -227T90 -246Q87 -249 86 -250H74Q66 -250 63 -250T58 -247T55 -238Q56 -237 66 -225Q221 -64 221 250T66 725Q56 737 55 738Q55 746 60 749Z"></path>
<path stroke-width="10" id="E1-MJMAIN-3D" d="M56 347Q56 360 70 367H707Q722 359 722 347Q722 336 708 328L390 327H72Q56 332 56 347ZM56 153Q56 168 72 173H708Q722 163 722 153Q722 140 707 133H70Q56 140 56 153Z"></path>
<path stroke-width="10" id="E1-MJMAIN-5B" d="M118 -250V750H255V710H158V-210H255V-250H118Z"></path>
<path stroke-width="10" id="E1-MJMAIN-2202" d="M202 508Q179 508 169 520T158 547Q158 557 164 577T185 624T230 675T301 710L333 715H345Q378 715 384 714Q447 703 489 661T549 568T566 457Q566 362 519 240T402 53Q321 -22 223 -22Q123 -22 73 56Q42 102 42 148V159Q42 276 129 370T322 465Q383 465 414 434T455 367L458 378Q478 461 478 515Q478 603 437 639T344 676Q266 676 223 612Q264 606 264 572Q264 547 246 528T202 508ZM430 306Q430 372 401 400T333 428Q270 428 222 382Q197 354 183 323T150 221Q132 149 132 116Q132 21 232 21Q244 21 250 22Q327 35 374 112Q389 137 409 196T430 306Z"></path>
<path stroke-width="10" id="E1-MJMAIN-32" d="M109 429Q82 429 66 447T50 491Q50 562 103 614T235 666Q326 666 387 610T449 465Q449 422 429 383T381 315T301 241Q265 210 201 149L142 93L218 92Q375 92 385 97Q392 99 409 186V189H449V186Q448 183 436 95T421 3V0H50V19V31Q50 38 56 46T86 81Q115 113 136 137Q145 147 170 174T204 211T233 244T261 278T284 308T305 340T320 369T333 401T340 431T343 464Q343 527 309 573T212 619Q179 619 154 602T119 569T109 550Q109 549 114 549Q132 549 151 535T170 489Q170 464 154 447T109 429Z"></path>
<path stroke-width="10" id="E1-MJMATHI-78" d="M52 289Q59 331 106 386T222 442Q257 442 286 424T329 379Q371 442 430 442Q467 442 494 420T522 361Q522 332 508 314T481 292T458 288Q439 288 427 299T415 328Q415 374 465 391Q454 404 425 404Q412 404 406 402Q368 386 350 336Q290 115 290 78Q290 50 306 38T341 26Q378 26 414 59T463 140Q466 150 469 151T485 153H489Q504 153 504 145Q504 144 502 134Q486 77 440 33T333 -11Q263 -11 227 52Q186 -10 133 -10H127Q78 -10 57 16T35 71Q35 103 54 123T99 143Q142 143 142 101Q142 81 130 66T107 46T94 41L91 40Q91 39 97 36T113 29T132 26Q168 26 194 71Q203 87 217 139T245 247T261 313Q266 340 266 352Q266 380 251 392T217 404Q177 404 142 372T93 290Q91 281 88 280T72 278H58Q52 284 52 289Z"></path>
<path stroke-width="10" id="E1-MJMAIN-31" d="M213 578L200 573Q186 568 160 563T102 556H83V602H102Q149 604 189 617T245 641T273 663Q275 666 285 666Q294 666 302 660V361L303 61Q310 54 315 52T339 48T401 46H427V0H416Q395 3 257 3Q121 3 100 0H88V46H114Q136 46 152 46T177 47T193 50T201 52T207 57T213 61V578Z"></path>
<path stroke-width="10" id="E1-MJMAIN-22EF" d="M78 250Q78 274 95 292T138 310Q162 310 180 294T199 251Q199 226 182 208T139 190T96 207T78 250ZM525 250Q525 274 542 292T585 310Q609 310 627 294T646 251Q646 226 629 208T586 190T543 207T525 250ZM972 250Q972 274 989 292T1032 310Q1056 310 1074 294T1093 251Q1093 226 1076 208T1033 190T990 207T972 250Z"></path>
<path stroke-width="10" id="E1-MJMATHI-6E" d="M21 287Q22 293 24 303T36 341T56 388T89 425T135 442Q171 442 195 424T225 390T231 369Q231 367 232 367L243 378Q304 442 382 442Q436 442 469 415T503 336T465 179T427 52Q427 26 444 26Q450 26 453 27Q482 32 505 65T540 145Q542 153 560 153Q580 153 580 145Q580 144 576 130Q568 101 554 73T508 17T439 -10Q392 -10 371 17T350 73Q350 92 386 193T423 345Q423 404 379 404H374Q288 404 229 303L222 291L189 157Q156 26 151 16Q138 -11 108 -11Q95 -11 87 -5T76 7T74 17Q74 30 112 180T152 343Q153 348 153 366Q153 405 129 405Q91 405 66 305Q60 285 60 284Q58 278 41 278H27Q21 284 21 287Z"></path>
<path stroke-width="10" id="E1-MJMAIN-22EE" d="M78 30Q78 54 95 72T138 90Q162 90 180 74T199 31Q199 6 182 -12T139 -30T96 -13T78 30ZM78 440Q78 464 95 482T138 500Q162 500 180 484T199 441Q199 416 182 398T139 380T96 397T78 440ZM78 840Q78 864 95 882T138 900Q162 900 180 884T199 841Q199 816 182 798T139 780T96 797T78 840Z"></path>
<path stroke-width="10" id="E1-MJMAIN-22F1" d="M133 760Q133 784 150 802T193 820Q217 820 235 804T254 761Q254 736 237 718T194 700T151 717T133 760ZM580 460Q580 484 597 502T640 520Q664 520 682 504T701 461Q701 436 684 418T641 400T598 417T580 460ZM1027 160Q1027 184 1044 202T1087 220Q1111 220 1129 204T1148 161Q1148 136 1131 118T1088 100T1045 117T1027 160Z"></path>
<path stroke-width="10" id="E1-MJMAIN-5D" d="M22 710V750H159V-250H22V-210H119V710H22Z"></path>
<path stroke-width="10" id="E1-MJSZ4-23A1" d="M319 -645V1154H666V1070H403V-645H319Z"></path>
<path stroke-width="10" id="E1-MJSZ4-23A3" d="M319 -644V1155H403V-560H666V-644H319Z"></path>
<path stroke-width="10" id="E1-MJSZ4-23A2" d="M319 0V602H403V0H319Z"></path>
<path stroke-width="10" id="E1-MJSZ4-23A4" d="M0 1070V1154H347V-645H263V1070H0Z"></path>
<path stroke-width="10" id="E1-MJSZ4-23A6" d="M263 -560V1155H347V-644H0V-560H263Z"></path>
<path stroke-width="10" id="E1-MJSZ4-23A5" d="M263 0V602H347V0H263Z"></path>
</defs>
<g stroke="currentColor" fill="currentColor" stroke-width="0" transform="matrix(1 0 0 -1 0 0)">
 <use xlink:href="#E1-MJMATHI-48" x="0" y="0"></use>
 <use xlink:href="#E1-MJMAIN-28" x="893" y="0"></use>
 <use xlink:href="#E1-MJMATHI-66" x="1287" y="0"></use>
 <use xlink:href="#E1-MJMAIN-29" x="1842" y="0"></use>
 <use xlink:href="#E1-MJMAIN-3D" x="2513" y="0"></use>
<g transform="translate(3574,0)">
<g transform="translate(0,6956)">
 <use xlink:href="#E1-MJSZ4-23A1" x="0" y="-1164"></use>
<g transform="translate(0,-11485.829538965892) scale(1,15.877172449290674)">
 <use xlink:href="#E1-MJSZ4-23A2"></use>
</g>
 <use xlink:href="#E1-MJSZ4-23A3" x="0" y="-12760"></use>
</g>
<g transform="translate(839,0)">
<g transform="translate(-11,0)">
<g transform="translate(698,5681)">
<g transform="translate(120,0)">
<rect stroke="none" width="1293" height="60" x="0" y="220"></rect>
<g transform="translate(63,596)">
 <use transform="scale(0.707)" xlink:href="#E1-MJMAIN-2202" x="0" y="0"></use>
 <use transform="scale(0.574)" xlink:href="#E1-MJMAIN-32" x="717" y="506"></use>
 <use transform="scale(0.707)" xlink:href="#E1-MJMATHI-66" x="1092" y="0"></use>
</g>
<g transform="translate(60,-582)">
 <use transform="scale(0.707)" xlink:href="#E1-MJMAIN-2202" x="0" y="0"></use>
<g transform="translate(404,0)">
 <use transform="scale(0.707)" xlink:href="#E1-MJMATHI-78" x="0" y="0"></use>
 <use transform="scale(0.574)" xlink:href="#E1-MJMAIN-32" x="710" y="434"></use>
 <use transform="scale(0.574)" xlink:href="#E1-MJMAIN-31" x="710" y="-474"></use>
</g>
</g>
</g>
</g>
<g transform="translate(28,1746)">
<g transform="translate(120,0)">
<rect stroke="none" width="2632" height="60" x="0" y="220"></rect>
<g transform="translate(733,596)">
 <use transform="scale(0.707)" xlink:href="#E1-MJMAIN-2202" x="0" y="0"></use>
 <use transform="scale(0.574)" xlink:href="#E1-MJMAIN-32" x="717" y="506"></use>
 <use transform="scale(0.707)" xlink:href="#E1-MJMATHI-66" x="1092" y="0"></use>
</g>
<g transform="translate(60,-458)">
 <use transform="scale(0.707)" xlink:href="#E1-MJMAIN-2202" x="0" y="0"></use>
<g transform="translate(404,0)">
 <use transform="scale(0.707)" xlink:href="#E1-MJMATHI-78" x="0" y="0"></use>
 <use transform="scale(0.574)" xlink:href="#E1-MJMAIN-32" x="710" y="-252"></use>
</g>
 <use transform="scale(0.707)" xlink:href="#E1-MJMAIN-2202" x="1894" y="0"></use>
<g transform="translate(1744,0)">
 <use transform="scale(0.707)" xlink:href="#E1-MJMATHI-78" x="0" y="0"></use>
 <use transform="scale(0.574)" xlink:href="#E1-MJMAIN-31" x="710" y="-252"></use>
</g>
</g>
</g>
</g>
 <use xlink:href="#E1-MJMAIN-22EE" x="1323" y="-2444"></use>
<g transform="translate(0,-5720)">
<g transform="translate(120,0)">
<rect stroke="none" width="2690" height="60" x="0" y="220"></rect>
<g transform="translate(762,596)">
 <use transform="scale(0.707)" xlink:href="#E1-MJMAIN-2202" x="0" y="0"></use>
 <use transform="scale(0.574)" xlink:href="#E1-MJMAIN-32" x="717" y="506"></use>
 <use transform="scale(0.707)" xlink:href="#E1-MJMATHI-66" x="1092" y="0"></use>
</g>
<g transform="translate(60,-458)">
 <use transform="scale(0.707)" xlink:href="#E1-MJMAIN-2202" x="0" y="0"></use>
<g transform="translate(404,0)">
 <use transform="scale(0.707)" xlink:href="#E1-MJMATHI-78" x="0" y="0"></use>
 <use transform="scale(0.574)" xlink:href="#E1-MJMATHI-6E" x="710" y="-185"></use>
</g>
 <use transform="scale(0.707)" xlink:href="#E1-MJMAIN-2202" x="1975" y="0"></use>
<g transform="translate(1801,0)">
 <use transform="scale(0.707)" xlink:href="#E1-MJMATHI-78" x="0" y="0"></use>
 <use transform="scale(0.574)" xlink:href="#E1-MJMAIN-31" x="710" y="-252"></use>
</g>
</g>
</g>
</g>
</g>
<g transform="translate(3919,0)">
<g transform="translate(28,5681)">
<g transform="translate(120,0)">
<rect stroke="none" width="2632" height="60" x="0" y="220"></rect>
<g transform="translate(733,596)">
 <use transform="scale(0.707)" xlink:href="#E1-MJMAIN-2202" x="0" y="0"></use>
 <use transform="scale(0.574)" xlink:href="#E1-MJMAIN-32" x="717" y="506"></use>
 <use transform="scale(0.707)" xlink:href="#E1-MJMATHI-66" x="1092" y="0"></use>
</g>
<g transform="translate(60,-458)">
 <use transform="scale(0.707)" xlink:href="#E1-MJMAIN-2202" x="0" y="0"></use>
<g transform="translate(404,0)">
 <use transform="scale(0.707)" xlink:href="#E1-MJMATHI-78" x="0" y="0"></use>
 <use transform="scale(0.574)" xlink:href="#E1-MJMAIN-31" x="710" y="-252"></use>
</g>
 <use transform="scale(0.707)" xlink:href="#E1-MJMAIN-2202" x="1894" y="0"></use>
<g transform="translate(1744,0)">
 <use transform="scale(0.707)" xlink:href="#E1-MJMATHI-78" x="0" y="0"></use>
 <use transform="scale(0.574)" xlink:href="#E1-MJMAIN-32" x="710" y="-252"></use>
</g>
</g>
</g>
</g>
<g transform="translate(698,1746)">
<g transform="translate(120,0)">
<rect stroke="none" width="1293" height="60" x="0" y="220"></rect>
<g transform="translate(63,596)">
 <use transform="scale(0.707)" xlink:href="#E1-MJMAIN-2202" x="0" y="0"></use>
 <use transform="scale(0.574)" xlink:href="#E1-MJMAIN-32" x="717" y="506"></use>
 <use transform="scale(0.707)" xlink:href="#E1-MJMATHI-66" x="1092" y="0"></use>
</g>
<g transform="translate(60,-582)">
 <use transform="scale(0.707)" xlink:href="#E1-MJMAIN-2202" x="0" y="0"></use>
<g transform="translate(404,0)">
 <use transform="scale(0.707)" xlink:href="#E1-MJMATHI-78" x="0" y="0"></use>
 <use transform="scale(0.574)" xlink:href="#E1-MJMAIN-32" x="710" y="434"></use>
 <use transform="scale(0.574)" xlink:href="#E1-MJMAIN-32" x="710" y="-474"></use>
</g>
</g>
</g>
</g>
 <use xlink:href="#E1-MJMAIN-22EE" x="1323" y="-2444"></use>
<g transform="translate(0,-5720)">
<g transform="translate(120,0)">
<rect stroke="none" width="2690" height="60" x="0" y="220"></rect>
<g transform="translate(762,596)">
 <use transform="scale(0.707)" xlink:href="#E1-MJMAIN-2202" x="0" y="0"></use>
 <use transform="scale(0.574)" xlink:href="#E1-MJMAIN-32" x="717" y="506"></use>
 <use transform="scale(0.707)" xlink:href="#E1-MJMATHI-66" x="1092" y="0"></use>
</g>
<g transform="translate(60,-458)">
 <use transform="scale(0.707)" xlink:href="#E1-MJMAIN-2202" x="0" y="0"></use>
<g transform="translate(404,0)">
 <use transform="scale(0.707)" xlink:href="#E1-MJMATHI-78" x="0" y="0"></use>
 <use transform="scale(0.574)" xlink:href="#E1-MJMATHI-6E" x="710" y="-185"></use>
</g>
 <use transform="scale(0.707)" xlink:href="#E1-MJMAIN-2202" x="1975" y="0"></use>
<g transform="translate(1801,0)">
 <use transform="scale(0.707)" xlink:href="#E1-MJMATHI-78" x="0" y="0"></use>
 <use transform="scale(0.574)" xlink:href="#E1-MJMAIN-32" x="710" y="-252"></use>
</g>
</g>
</g>
</g>
</g>
<g transform="translate(7850,0)">
 <use xlink:href="#E1-MJMAIN-22EF" x="55" y="5681"></use>
 <use xlink:href="#E1-MJMAIN-22EF" x="55" y="1746"></use>
 <use xlink:href="#E1-MJMAIN-22F1" x="0" y="-2444"></use>
 <use xlink:href="#E1-MJMAIN-22EF" x="55" y="-5720"></use>
</g>
<g transform="translate(10137,0)">
<g transform="translate(0,5681)">
<g transform="translate(120,0)">
<rect stroke="none" width="2690" height="60" x="0" y="220"></rect>
<g transform="translate(762,596)">
 <use transform="scale(0.707)" xlink:href="#E1-MJMAIN-2202" x="0" y="0"></use>
 <use transform="scale(0.574)" xlink:href="#E1-MJMAIN-32" x="717" y="506"></use>
 <use transform="scale(0.707)" xlink:href="#E1-MJMATHI-66" x="1092" y="0"></use>
</g>
<g transform="translate(60,-458)">
 <use transform="scale(0.707)" xlink:href="#E1-MJMAIN-2202" x="0" y="0"></use>
<g transform="translate(404,0)">
 <use transform="scale(0.707)" xlink:href="#E1-MJMATHI-78" x="0" y="0"></use>
 <use transform="scale(0.574)" xlink:href="#E1-MJMAIN-31" x="710" y="-252"></use>
</g>
 <use transform="scale(0.707)" xlink:href="#E1-MJMAIN-2202" x="1894" y="0"></use>
<g transform="translate(1744,0)">
 <use transform="scale(0.707)" xlink:href="#E1-MJMATHI-78" x="0" y="0"></use>
 <use transform="scale(0.574)" xlink:href="#E1-MJMATHI-6E" x="710" y="-185"></use>
</g>
</g>
</g>
</g>
<g transform="translate(0,1746)">
<g transform="translate(120,0)">
<rect stroke="none" width="2690" height="60" x="0" y="220"></rect>
<g transform="translate(762,596)">
 <use transform="scale(0.707)" xlink:href="#E1-MJMAIN-2202" x="0" y="0"></use>
 <use transform="scale(0.574)" xlink:href="#E1-MJMAIN-32" x="717" y="506"></use>
 <use transform="scale(0.707)" xlink:href="#E1-MJMATHI-66" x="1092" y="0"></use>
</g>
<g transform="translate(60,-458)">
 <use transform="scale(0.707)" xlink:href="#E1-MJMAIN-2202" x="0" y="0"></use>
<g transform="translate(404,0)">
 <use transform="scale(0.707)" xlink:href="#E1-MJMATHI-78" x="0" y="0"></use>
 <use transform="scale(0.574)" xlink:href="#E1-MJMAIN-32" x="710" y="-252"></use>
</g>
 <use transform="scale(0.707)" xlink:href="#E1-MJMAIN-2202" x="1894" y="0"></use>
<g transform="translate(1744,0)">
 <use transform="scale(0.707)" xlink:href="#E1-MJMATHI-78" x="0" y="0"></use>
 <use transform="scale(0.574)" xlink:href="#E1-MJMATHI-6E" x="710" y="-185"></use>
</g>
</g>
</g>
</g>
 <use xlink:href="#E1-MJMAIN-22EE" x="1323" y="-2444"></use>
<g transform="translate(669,-5720)">
<g transform="translate(120,0)">
<rect stroke="none" width="1350" height="60" x="0" y="220"></rect>
<g transform="translate(92,596)">
 <use transform="scale(0.707)" xlink:href="#E1-MJMAIN-2202" x="0" y="0"></use>
 <use transform="scale(0.574)" xlink:href="#E1-MJMAIN-32" x="717" y="506"></use>
 <use transform="scale(0.707)" xlink:href="#E1-MJMATHI-66" x="1092" y="0"></use>
</g>
<g transform="translate(60,-582)">
 <use transform="scale(0.707)" xlink:href="#E1-MJMAIN-2202" x="0" y="0"></use>
<g transform="translate(404,0)">
 <use transform="scale(0.707)" xlink:href="#E1-MJMATHI-78" x="0" y="0"></use>
 <use transform="scale(0.574)" xlink:href="#E1-MJMAIN-32" x="710" y="434"></use>
 <use transform="scale(0.574)" xlink:href="#E1-MJMATHI-6E" x="710" y="-251"></use>
</g>
</g>
</g>
</g>
</g>
</g>
<g transform="translate(14073,6956)">
 <use xlink:href="#E1-MJSZ4-23A4" x="0" y="-1164"></use>
<g transform="translate(0,-11485.829538965892) scale(1,15.877172449290674)">
 <use xlink:href="#E1-MJSZ4-23A5"></use>
</g>
 <use xlink:href="#E1-MJSZ4-23A6" x="0" y="-12760"></use>
</g>
</g>
</g>
</svg>